<svg xmlns="http://www.w3.org/2000/svg" xmlns:xlink="http://www.w3.org/1999/xlink" fill="none" version="1.1" width="24" height="23.031238555908203" viewBox="0 0 24 23.031238555908203"><g><path d="M24,0L24,8.7275L18.1818,8.7275L18.1818,4.91004L12.9091,4.91004L12.9091,17.7585L18.1818,17.7585L18.1818,14.304L24,14.304L24,23.0312L18.1818,23.0312L18.1818,19.5767L5.81816,19.5767L5.81816,23.0312L-0.0000138716,23.0312L-0.0000138716,14.304L5.81816,14.304L5.81816,17.7585L11.0909,17.7585L11.0909,4.91004L5.81818,4.91004L5.81818,8.7275L0,8.7275L0,0L5.81818,0L5.81818,3.09185L18.1818,3.09185L18.1818,0L24,0ZM22.1818,1.81818L20,1.81818L20,6.90932L22.1818,6.90932L22.1818,1.81818ZM3.99998,16.1222L3.99998,21.2131L1.81817,21.2131L1.81817,16.1222L3.99998,16.1222Z" fill-rule="evenodd" fill="#595C61" fill-opacity="1"/></g></svg>