<svg xmlns="http://www.w3.org/2000/svg" xmlns:xlink="http://www.w3.org/1999/xlink" fill="none" version="1.1" width="22.62774658203125" height="24.000001907348633" viewBox="0 0 22.62774658203125 24.000001907348633"><g><path d="M0,0L5.48551,0L5.48551,8.22827L0,8.22827L0,0ZM1.71422,1.71422L1.71422,6.51404L3.77129,6.51404L3.77129,1.71422L1.71422,1.71422ZM9.44049,4.62929L7.30996,4.62929L7.30996,2.91507L9.44049,2.91507L9.44049,4.62929ZM10.4568,6.15985L10.4568,4.02932L12.171,4.02932L12.171,6.15985L10.4568,6.15985ZM10.4568,10.4209L10.4568,8.29038L12.171,8.29038L12.171,10.4209L10.4568,10.4209ZM10.4568,14.682L10.4568,12.5514L12.171,12.5514L12.171,14.682L10.4568,14.682ZM22.6277,15.7717L17.1422,15.7717L17.1422,19.0288L16.7627,19.0288L16.7627,20.743L17.1422,20.743L17.1422,24L22.6277,24L22.6277,15.7717ZM10.4568,18.943L10.4568,16.8125L12.171,16.8125L12.171,18.943L10.4568,18.943ZM18.8565,22.2858L18.8565,17.486L20.9135,17.486L20.9135,22.2858L18.8565,22.2858ZM14.6321,20.743L12.5016,20.743L12.5016,19.0288L14.6321,19.0288L14.6321,20.743Z" fill-rule="evenodd" fill="#595C61" fill-opacity="1"/></g></svg>