<svg xmlns="http://www.w3.org/2000/svg" xmlns:xlink="http://www.w3.org/1999/xlink" fill="none" version="1.1" width="22.627729415893555" height="24.000001907348633" viewBox="0 0 22.627729415893555 24.000001907348633"><g><path d="M5.48551,0L0,0L0,8.22827L5.48551,8.22827L5.48551,0ZM9.44044,4.62929L7.30991,4.62929L7.30991,2.91507L9.44044,2.91507L9.44044,4.62929ZM10.4567,6.15985L10.4567,4.02932L12.1709,4.02932L12.1709,6.15985L10.4567,6.15985ZM10.4567,10.4209L10.4567,8.29038L12.1709,8.29038L12.1709,10.4209L10.4567,10.4209ZM10.4567,14.682L10.4567,12.5514L12.1709,12.5514L12.1709,14.682L10.4567,14.682ZM22.6277,15.7717L17.1422,15.7717L17.1422,19.0288L16.7626,19.0288L16.7626,20.743L17.1422,20.743L17.1422,24L22.6277,24L22.6277,15.7717ZM10.4567,18.943L10.4567,16.8125L12.1709,16.8125L12.1709,18.943L10.4567,18.943ZM18.8564,22.2858L18.8564,17.486L20.9135,17.486L20.9135,22.2858L18.8564,22.2858ZM14.6321,20.743L12.5015,20.743L12.5015,19.0288L14.6321,19.0288L14.6321,20.743Z" fill-rule="evenodd" fill="#595C61" fill-opacity="1"/></g></svg>