<svg xmlns="http://www.w3.org/2000/svg"
  xmlns:xlink="http://www.w3.org/1999/xlink" fill="none" version="1.1" width="24" height="24" viewBox="0 0 24 24">
  <g>
    <path d="M22.2857,0C23.1733,0,23.9034,0.674571,23.9911,1.53901C23.997,1.59664,24,1.65511,24,1.71429L24,22.2857C24,23.2325,23.2325,24,22.2857,24L1.71429,24C0.767512,24,0,23.2325,0,22.2857L0,1.71429C0,0.826685,0.674571,0.0966391,1.53901,0.00885064C1.59664,0.00299809,1.65511,0,1.71429,0L22.2857,0ZM22.4,1.71429L22.4,4.28679L1.6,4.28679L1.6,1.71429Q1.6,1.60714,1.70045,1.60045Q1.70714,1.6,1.71429,1.6L22.2857,1.6Q22.4,1.6,22.4,1.71429ZM22.4,5.88679L1.6,5.88679L1.6,22.2857Q1.6,22.3331,1.63347,22.3665Q1.66695,22.4,1.71429,22.4L22.2857,22.4Q22.4,22.4,22.4,22.2857L22.4,5.88679ZM18,10.2752L12.0005,7L12.0005,7L6,10.2752L6,17.5719L11.9995,20.8462L18,17.5719L18,10.2752ZM12.0005,8.47399L16.0182,10.6669L11.9995,12.8608L7.98184,10.6669L12.0005,8.47399ZM7.26376,11.7497L7.26376,16.7875L11.3686,19.0283L11.3686,13.99L7.26376,11.7497ZM12.6314,19.0283L12.6314,13.99L16.7362,11.7492L16.7362,16.7875L12.6314,19.0283Z" fill-rule="evenodd" fill="black" fill-opacity="1"/>
  </g>
</svg>