<svg xmlns="http://www.w3.org/2000/svg" xmlns:xlink="http://www.w3.org/1999/xlink" fill="none" version="1.1" width="14.99999713897705" height="15" viewBox="0 0 14.99999713897705 15"><g><path d="M13.9933,8.87833L12.0917,8.87833L12.0917,8.56C12.0867,7.78193,11.4589,7.1515,10.6808,7.14333C10.1508,7.13833,9.62083,7.14333,9.09167,7.14333L7.89083,7.14333L7.89083,6.12167L9.575,6.12167C10.1315,6.12305,10.5833,5.67232,10.5833,5.11584L10.5833,1.005C10.5829,0.448844,10.1312,-0.0013799,9.575,0.00000332196L5.46417,0.00000332196C4.90879,-0.000457827,4.45833,0.449631,4.45833,1.005L4.45833,5.11667C4.45833,5.67204,4.90879,6.12213,5.46417,6.12167L7.08333,6.12167L7.08333,7.13917L4.305,7.13917C4.13908,7.13543,3.97371,7.15966,3.81583,7.21083C3.39583,7.3558,3.0658,7.68583,2.92083,8.10583C2.85866,8.32511,2.83442,8.5534,2.84917,8.78083L2.84917,8.85L1.00667,8.85C0.450835,8.84954,-3.77496e-8,9.3,0,9.85583L0,13.9667C0.000460319,14.5222,0.45116,14.9721,1.00667,14.9717L5.1175,14.9717C5.67268,14.9717,6.12287,14.5218,6.12333,13.9667L6.12333,9.85583C6.12333,9.30033,5.673,8.85,5.1175,8.85L3.65417,8.85L3.65417,8.56833L3.65417,8.485L3.65417,8.46167L3.65417,8.4525C3.65491,8.44418,3.65491,8.43582,3.65417,8.4275L3.65417,8.44167C3.66262,8.40016,3.67375,8.35924,3.6875,8.31917C3.6913,8.30929,3.69547,8.29957,3.7,8.29C3.71663,8.25738,3.73499,8.22567,3.755,8.195C3.76667,8.17667,3.78167,8.16,3.7925,8.14167L3.7825,8.15833C3.81,8.1275,3.84,8.10083,3.86583,8.075C3.87583,8.0675,3.885,8.06,3.895,8.05417C3.92891,8.03408,3.96397,8.01599,4,8L3.98333,8C4,7.99583,4.01833,7.98667,4.035,7.98083C4.07553,7.9679,4.11669,7.95705,4.15833,7.94833C4.17417,7.94833,4.19083,7.94417,4.205,7.94333L10.7817,7.94333C10.8183,7.95104,10.8545,7.96077,10.89,7.9725C10.9108,7.97917,10.9317,7.99,10.9525,7.995L10.9358,7.995C10.9685,8.0116,11.0002,8.02996,11.0308,8.05L11.055,8.06667L11.07,8.08333C11.097,8.10744,11.1226,8.13303,11.1467,8.16L11.1367,8.14334C11.1458,8.15917,11.1583,8.17334,11.1683,8.1875C11.1906,8.22103,11.2109,8.25581,11.2292,8.29167C11.2292,8.29833,11.2367,8.30833,11.2408,8.31833C11.2436,8.32482,11.2458,8.3315,11.2475,8.33834C11.2593,8.37387,11.269,8.41004,11.2767,8.44667L11.2767,8.4525C11.2772,8.44473,11.2772,8.43694,11.2767,8.42917C11.2767,8.44417,11.2767,8.46,11.2808,8.475L11.2808,8.87667L9.88333,8.87667C9.32783,8.87667,8.8775,9.327,8.8775,9.8825L8.8775,13.9933C8.87704,14.5492,9.3275,15,9.88333,15L13.9933,15C14.5488,15.0005,14.9995,14.5505,15,13.995L15,9.88417C15,9.32847,14.549,8.87825,13.9933,8.87917L13.9933,8.87833Z" fill="#B944CA" fill-opacity="1"/></g></svg>