<svg xmlns="http://www.w3.org/2000/svg" xmlns:xlink="http://www.w3.org/1999/xlink" fill="none" version="1.1" width="14.399999618530273" height="16" viewBox="0 0 14.399999618530273 16"><g><path d="M12.8,0L1.6,0C0.72,0,0,0.72,0,1.6L0,14.4C0,15.28,0.72,16,1.6,16L12.8,16C13.68,16,14.4,15.28,14.4,14.4L14.4,1.6C14.4,0.72,13.68,0,12.8,0ZM7.2,12.8L4,12.8C3.6,12.8,3.2,12.4,3.2,12C3.2,11.6,3.6,11.2,4,11.2L7.2,11.2C7.6,11.2,8,11.6,8,12C8,12.4,7.68,12.8,7.2,12.8ZM10.4,8.8L4,8.8C3.6,8.8,3.2,8.4,3.2,8C3.2,7.6,3.6,7.2,4,7.2L10.4,7.2C10.8,7.2,11.2,7.6,11.2,8C11.2,8.4,10.88,8.8,10.4,8.8ZM10.4,4.8L4,4.8C3.6,4.8,3.2,4.4,3.2,4C3.2,3.6,3.6,3.2,4,3.2L10.4,3.2C10.8,3.2,11.2,3.6,11.2,4C11.2,4.4,10.88,4.8,10.4,4.8Z" fill="#E2C174" fill-opacity="1"/></g></svg>